<svg width="900" height="620" viewBox="0 0 900 620" xmlns="http://www.w3.org/2000/svg" font-family="'Courier New', monospace">
  <defs>
    <linearGradient id="bgGrad" x1="0%" y1="0%" x2="100%" y2="100%">
      <stop offset="0%" style="stop-color:#0a0f1e"/>
      <stop offset="100%" style="stop-color:#0d1b2a"/>
    </linearGradient>
    <linearGradient id="vpcGrad" x1="0%" y1="0%" x2="100%" y2="100%">
      <stop offset="0%" style="stop-color:#1a2744;stop-opacity:0.8"/>
      <stop offset="100%" style="stop-color:#0f1e38;stop-opacity:0.8"/>
    </linearGradient>
    <linearGradient id="pubGrad" x1="0%" y1="0%" x2="100%" y2="100%">
      <stop offset="0%" style="stop-color:#0d3b2e;stop-opacity:0.9"/>
      <stop offset="100%" style="stop-color:#072a1f;stop-opacity:0.9"/>
    </linearGradient>
    <linearGradient id="privGrad" x1="0%" y1="0%" x2="100%" y2="100%">
      <stop offset="0%" style="stop-color:#2a1a0d;stop-opacity:0.9"/>
      <stop offset="100%" style="stop-color:#1e1007;stop-opacity:0.9"/>
    </linearGradient>
    <linearGradient id="ec2Grad" x1="0%" y1="0%" x2="100%" y2="100%">
      <stop offset="0%" style="stop-color:#ff9900"/>
      <stop offset="100%" style="stop-color:#e07b00"/>
    </linearGradient>
    <filter id="glow">
      <feGaussianBlur stdDeviation="3" result="coloredBlur"/>
      <feMerge>
        <feMergeNode in="coloredBlur"/>
        <feMergeNode in="SourceGraphic"/>
      </feMerge>
    </filter>
    <filter id="shadow">
      <feDropShadow dx="2" dy="4" stdDeviation="6" flood-color="#000" flood-opacity="0.5"/>
    </filter>
    <marker id="arrowBlue" markerWidth="10" markerHeight="7" refX="9" refY="3.5" orient="auto">
      <polygon points="0 0, 10 3.5, 0 7" fill="#4fc3f7"/>
    </marker>
    <marker id="arrowGreen" markerWidth="10" markerHeight="7" refX="9" refY="3.5" orient="auto">
      <polygon points="0 0, 10 3.5, 0 7" fill="#66bb6a"/>
    </marker>
  </defs>

  <!-- Background -->
  <rect width="900" height="620" fill="url(#bgGrad)"/>

  <!-- Grid lines subtle -->
  <g opacity="0.05">
    <line x1="0" y1="60" x2="900" y2="60" stroke="white" stroke-width="0.5"/>
    <line x1="0" y1="120" x2="900" y2="120" stroke="white" stroke-width="0.5"/>
    <line x1="0" y1="180" x2="900" y2="180" stroke="white" stroke-width="0.5"/>
    <line x1="0" y1="240" x2="900" y2="240" stroke="white" stroke-width="0.5"/>
    <line x1="0" y1="300" x2="900" y2="300" stroke="white" stroke-width="0.5"/>
    <line x1="0" y1="360" x2="900" y2="360" stroke="white" stroke-width="0.5"/>
    <line x1="0" y1="420" x2="900" y2="420" stroke="white" stroke-width="0.5"/>
    <line x1="0" y1="480" x2="900" y2="480" stroke="white" stroke-width="0.5"/>
    <line x1="0" y1="540" x2="900" y2="540" stroke="white" stroke-width="0.5"/>
    <line x1="60" y1="0" x2="60" y2="620" stroke="white" stroke-width="0.5"/>
    <line x1="150" y1="0" x2="150" y2="620" stroke="white" stroke-width="0.5"/>
    <line x1="300" y1="0" x2="300" y2="620" stroke="white" stroke-width="0.5"/>
    <line x1="450" y1="0" x2="450" y2="620" stroke="white" stroke-width="0.5"/>
    <line x1="600" y1="0" x2="600" y2="620" stroke="white" stroke-width="0.5"/>
    <line x1="750" y1="0" x2="750" y2="620" stroke="white" stroke-width="0.5"/>
  </g>

  <!-- Title -->
  <text x="450" y="38" text-anchor="middle" fill="#4fc3f7" font-size="18" font-weight="bold" filter="url(#glow)" letter-spacing="3">AWS INFRASTRUCTURE — TERRAFORM MODULES</text>
  <text x="450" y="56" text-anchor="middle" fill="#546e7a" font-size="10" letter-spacing="2">DEV ENVIRONMENT  •  ARSHAD AHMAD KHAN</text>

  <!-- AWS Cloud boundary -->
  <rect x="30" y="70" width="840" height="480" rx="12" fill="none" stroke="#37474f" stroke-width="1.5" stroke-dasharray="8,4"/>
  <rect x="30" y="70" width="120" height="22" rx="4" fill="#37474f"/>
  <text x="90" y="85" text-anchor="middle" fill="#90a4ae" font-size="10" letter-spacing="1">AWS CLOUD</text>

  <!-- VPC Box -->
  <rect x="60" y="105" width="780" height="420" rx="10" fill="url(#vpcGrad)" stroke="#1e88e5" stroke-width="1.5" filter="url(#shadow)"/>
  <rect x="60" y="105" width="140" height="22" rx="4" fill="#1e88e5" opacity="0.8"/>
  <text x="130" y="120" text-anchor="middle" fill="white" font-size="10" font-weight="bold" letter-spacing="1">VPC  10.0.0.0/16</text>

  <!-- Internet Gateway -->
  <rect x="370" y="118" width="160" height="40" rx="6" fill="#263238" stroke="#4fc3f7" stroke-width="1.5"/>
  <text x="450" y="134" text-anchor="middle" fill="#4fc3f7" font-size="9" font-weight="bold" letter-spacing="1">INTERNET GATEWAY</text>
  <text x="450" y="148" text-anchor="middle" fill="#546e7a" font-size="8">igw-xxxxxxxxxx</text>

  <!-- Public Subnet -->
  <rect x="80" y="175" width="360" height="320" rx="8" fill="url(#pubGrad)" stroke="#43a047" stroke-width="1.5"/>
  <rect x="80" y="175" width="180" height="20" rx="4" fill="#2e7d32" opacity="0.9"/>
  <text x="170" y="188" text-anchor="middle" fill="#a5d6a7" font-size="9" font-weight="bold" letter-spacing="1">PUBLIC SUBNET  10.0.1.0/24</text>

  <!-- Route Table Public -->
  <rect x="100" y="205" width="150" height="55" rx="5" fill="#1b3a25" stroke="#43a047" stroke-width="1"/>
  <text x="175" y="220" text-anchor="middle" fill="#81c784" font-size="9" font-weight="bold">ROUTE TABLE</text>
  <line x1="100" y1="226" x2="250" y2="226" stroke="#43a047" stroke-width="0.5"/>
  <text x="175" y="238" text-anchor="middle" fill="#546e7a" font-size="7.5">0.0.0.0/0 → IGW</text>
  <text x="175" y="250" text-anchor="middle" fill="#546e7a" font-size="7.5">local → local</text>

  <!-- EC2 Instance -->
  <rect x="95" y="278" width="330" height="190" rx="8" fill="#1a2a1a" stroke="#ff9900" stroke-width="2" filter="url(#shadow)"/>

  <!-- EC2 Icon area -->
  <rect x="115" y="293" width="50" height="50" rx="6" fill="url(#ec2Grad)"/>
  <text x="140" y="312" text-anchor="middle" fill="white" font-size="8" font-weight="bold">EC2</text>
  <rect x="122" y="315" width="36" height="4" rx="2" fill="rgba(255,255,255,0.6)"/>
  <rect x="122" y="321" width="28" height="4" rx="2" fill="rgba(255,255,255,0.4)"/>
  <rect x="122" y="327" width="32" height="4" rx="2" fill="rgba(255,255,255,0.5)"/>

  <text x="230" y="310" text-anchor="middle" fill="#ff9900" font-size="11" font-weight="bold">EC2 INSTANCE</text>
  <text x="230" y="325" text-anchor="middle" fill="#ffcc80" font-size="8">aws_instance.Server</text>

  <line x1="115" y1="335" x2="405" y2="335" stroke="#ff9900" stroke-width="0.5" opacity="0.4"/>

  <text x="175" y="353" text-anchor="middle" fill="#78909c" font-size="8">Instance Type</text>
  <text x="315" y="353" text-anchor="middle" fill="#ffcc80" font-size="8">t3.micro</text>
  <text x="175" y="368" text-anchor="middle" fill="#78909c" font-size="8">AMI</text>
  <text x="315" y="368" text-anchor="middle" fill="#ffcc80" font-size="8">ami-0b6c6ebed2801a5cb</text>
  <text x="175" y="383" text-anchor="middle" fill="#78909c" font-size="8">Subnet</text>
  <text x="315" y="383" text-anchor="middle" fill="#ffcc80" font-size="8">Public Subnet</text>
  <text x="175" y="398" text-anchor="middle" fill="#78909c" font-size="8">AZ</text>
  <text x="315" y="398" text-anchor="middle" fill="#ffcc80" font-size="8">us-east-1a</text>
  <text x="175" y="413" text-anchor="middle" fill="#78909c" font-size="8">Public IP</text>
  <text x="315" y="413" text-anchor="middle" fill="#66bb6a" font-size="8">✓ Enabled</text>
  <text x="175" y="428" text-anchor="middle" fill="#78909c" font-size="8">Name Tag</text>
  <text x="315" y="428" text-anchor="middle" fill="#ffcc80" font-size="8">Server</text>
  <text x="175" y="443" text-anchor="middle" fill="#78909c" font-size="8">Module</text>
  <text x="315" y="443" text-anchor="middle" fill="#ff9900" font-size="8">MODULES/EC2</text>

  <!-- Private Subnet -->
  <rect x="460" y="175" width="360" height="320" rx="8" fill="url(#privGrad)" stroke="#fb8c00" stroke-width="1.5"/>
  <rect x="460" y="175" width="190" height="20" rx="4" fill="#e65100" opacity="0.9"/>
  <text x="555" y="188" text-anchor="middle" fill="#ffcc80" font-size="9" font-weight="bold" letter-spacing="1">PRIVATE SUBNET  10.0.2.0/24</text>

  <!-- Route Table Private -->
  <rect x="480" y="205" width="150" height="55" rx="5" fill="#3a2010" stroke="#fb8c00" stroke-width="1"/>
  <text x="555" y="220" text-anchor="middle" fill="#ffcc80" font-size="9" font-weight="bold">ROUTE TABLE</text>
  <line x1="480" y1="226" x2="630" y2="226" stroke="#fb8c00" stroke-width="0.5"/>
  <text x="555" y="238" text-anchor="middle" fill="#546e7a" font-size="7.5">local → local only</text>
  <text x="555" y="250" text-anchor="middle" fill="#546e7a" font-size="7.5">No internet access</text>

  <!-- Private resource placeholder -->
  <rect x="480" y="275" width="320" height="80" rx="6" fill="#2a1a0a" stroke="#fb8c00" stroke-width="1" stroke-dasharray="5,3"/>
  <text x="640" y="310" text-anchor="middle" fill="#fb8c00" font-size="10" opacity="0.7">🔒 PRIVATE RESOURCES</text>
  <text x="640" y="328" text-anchor="middle" fill="#546e7a" font-size="8">e.g. RDS, Backend Servers</text>
  <text x="640" y="343" text-anchor="middle" fill="#37474f" font-size="7">(Can be added as new modules)</text>

  <!-- VPC info box -->
  <rect x="480" y="370" width="320" height="100" rx="6" fill="#0d1b2a" stroke="#1e88e5" stroke-width="1"/>
  <text x="640" y="388" text-anchor="middle" fill="#4fc3f7" font-size="9" font-weight="bold" letter-spacing="1">VPC MODULE OUTPUTS</text>
  <line x1="480" y1="393" x2="800" y2="393" stroke="#1e88e5" stroke-width="0.5"/>
  <text x="505" y="408" fill="#78909c" font-size="8">vpc_id</text>
  <text x="790" y="408" text-anchor="end" fill="#81d4fa" font-size="8">vpc-0379cdf79be0c015a</text>
  <text x="505" y="423" fill="#78909c" font-size="8">public_subnet_id</text>
  <text x="790" y="423" text-anchor="end" fill="#81d4fa" font-size="8">subnet-081cd15f0358461aa</text>
  <text x="505" y="438" fill="#78909c" font-size="8">private_subnet_id</text>
  <text x="790" y="438" text-anchor="end" fill="#81d4fa" font-size="8">subnet-0aef4bd1570407340</text>
  <text x="505" y="453" fill="#78909c" font-size="8">Module</text>
  <text x="790" y="453" text-anchor="end" fill="#1e88e5" font-size="8">MODULES/VPC</text>

  <!-- Arrows -->
  <!-- Internet to IGW -->
  <line x1="450" y1="90" x2="450" y2="118" stroke="#4fc3f7" stroke-width="1.5" marker-end="url(#arrowBlue)" stroke-dasharray="4,2"/>

  <!-- IGW to Public subnet -->
  <line x1="370" y1="145" x2="260" y2="175" stroke="#4fc3f7" stroke-width="1.5" marker-end="url(#arrowBlue)"/>

  <!-- VPC output to EC2 -->
  <line x1="480" y1="410" x2="425" y2="390" stroke="#1e88e5" stroke-width="1.5" marker-end="url(#arrowBlue)" stroke-dasharray="5,3"/>
  <text x="453" y="395" fill="#4fc3f7" font-size="7" text-anchor="middle">subnet_id</text>

  <!-- Internet label -->
  <text x="450" y="76" text-anchor="middle" fill="#4fc3f7" font-size="9" filter="url(#glow)">🌐 INTERNET</text>

  <!-- Terraform Module Labels -->
  <rect x="80" y="473" width="120" height="18" rx="3" fill="#1a237e" opacity="0.8"/>
  <text x="140" y="485" text-anchor="middle" fill="#9fa8da" font-size="7.5" letter-spacing="0.5">module "vpc" in dev/main.tf</text>
  <rect x="80" y="460" width="130" height="14" rx="3" fill="#b71c1c" opacity="0.8"/>
  <text x="145" y="470" text-anchor="middle" fill="#ef9a9a" font-size="7.5" letter-spacing="0.5">module "ec2" in dev/main.tf</text>

  <!-- Legend -->
  <rect x="30" y="560" width="840" height="50" rx="6" fill="#0a0f1e" stroke="#1e2a38" stroke-width="1"/>
  <text x="60" y="578" fill="#43a047" font-size="9">▓</text>
  <text x="72" y="578" fill="#546e7a" font-size="8">Public Subnet</text>
  <text x="160" y="578" fill="#fb8c00" font-size="9">▓</text>
  <text x="172" y="578" fill="#546e7a" font-size="8">Private Subnet</text>
  <text x="265" y="578" fill="#ff9900" font-size="9">▓</text>
  <text x="277" y="578" fill="#546e7a" font-size="8">EC2 Instance</text>
  <text x="360" y="578" fill="#4fc3f7" font-size="9">---→</text>
  <text x="395" y="578" fill="#546e7a" font-size="8">Internet Traffic</text>
  <text x="480" y="578" fill="#1e88e5" font-size="9">---→</text>
  <text x="515" y="578" fill="#546e7a" font-size="8">Module Output</text>

  <text x="60" y="598" fill="#b71c1c" font-size="9">▓</text>
  <text x="72" y="598" fill="#546e7a" font-size="8">EC2 Module (MODULES/EC2)</text>
  <text x="220" y="598" fill="#1a237e" font-size="9">▓</text>
  <text x="232" y="598" fill="#546e7a" font-size="8">VPC Module (MODULES/VPC)</text>
  <text x="400" y="598" fill="#37474f" font-size="8">CIDR: 10.0.0.0/16  •  Region: us-east-1  •  AZ: us-east-1a</text>
</svg>
